<?xml version="1.0" encoding="utf-8"?>
<!-- Generator: Adobe Illustrator 18.1.0, SVG Export Plug-In . SVG Version: 6.00 Build 0)  -->
<!DOCTYPE svg PUBLIC "-//W3C//DTD SVG 1.1//EN" "http://www.w3.org/Graphics/SVG/1.1/DTD/svg11.dtd">
<svg version="1.1" id="Layer_1" xmlns="http://www.w3.org/2000/svg" xmlns:xlink="http://www.w3.org/1999/xlink" x="0px" y="0px"
	 viewBox="0 0 275 279.4" enable-background="new 0 0 275 279.4" xml:space="preserve">
<g>
	<circle fill="#F68360" cx="137.5" cy="149.4" r="130"/>
	<g>
		<path fill="#ED6D47" d="M42.1,237.7c23.7,25.7,57.7,41.7,95.4,41.7s71.7-16.1,95.4-41.7H42.1z"/>
		<g>
			<g>
				<g>
					<path fill="#FFFFFF" d="M240.8,202.3c0,1.2-0.5,2.3-1.3,3.2c-0.9,0.9-2.1,1.3-3.2,1.3H38.8c-1.2,0-2.3-0.4-3.2-1.3
						c-0.9-0.9-1.3-2.1-1.3-3.2v-13.8h206.6V202.3z"/>
					<path fill="#232E38" d="M240.8,56.3c0-1.2-0.5-2.3-1.3-3.2c-0.9-0.9-2.1-1.3-3.2-1.3H38.8c-1.2,0-2.3,0.4-3.2,1.3
						c-0.9,0.9-1.3,2.1-1.3,3.2v132.3h206.6V56.3z"/>
					<rect x="44.5" y="62" fill="#FFFFFF" width="185.9" height="116.2"/>
				</g>
				<g>
					<polygon fill="#F2F2F2" points="166.2,234.5 108.8,234.5 111.9,206.9 163.1,206.9 					"/>
					<path fill="#FFFFFF" d="M177.7,237.7H97.3v-1.4c0-0.5,0.2-0.9,0.5-1.3c0.4-0.4,0.8-0.5,1.3-0.5h76.7c0.5,0,0.9,0.2,1.3,0.5
						c0.4,0.4,0.5,0.8,0.5,1.3V237.7z"/>
					<polygon fill="#E6E5E5" points="166.2,234.5 163.1,206.9 111.9,206.9 138.6,234.5 					"/>
				</g>
			</g>
			<g>
				<polygon fill="#F2F2F2" points="20.9,100.2 0,93.9 20.9,87.6 				"/>
				<polygon fill="#CCCBCA" points="0,93.9 20.9,100.2 20.9,96.3 				"/>
				<rect x="20.9" y="87.6" fill="#FFD680" width="232.5" height="12.7"/>
				<rect x="20.9" y="96.3" fill="#FFB959" width="232.5" height="4"/>
				<polygon fill="#353F49" points="8.2,96.4 0,93.9 8.2,91.4 				"/>
				<polygon fill="#232E38" points="8.2,96.4 0,93.9 8.2,94.8 				"/>
				<rect x="253.4" y="87.6" fill="#F2F2F2" width="7.4" height="12.7"/>
				<rect x="253.4" y="96.3" fill="#CCCBCA" width="7.4" height="4"/>
				<path fill="#F68360" d="M268.7,100.2c1.6,0,3.2-0.6,4.5-1.9c1.2-1.2,1.9-2.9,1.9-4.5l0,0c0-1.6-0.6-3.2-1.9-4.5
					c-1.2-1.2-2.9-1.9-4.5-1.9h-7.9v12.7H268.7z"/>
				<path fill="#ED6D47" d="M273.1,89.4c-0.7-0.7-1.6-1.2-2.5-1.5c0.2,0.7,0.4,1.3,0.4,2c0,1.6-0.6,3.2-1.9,4.5
					c-1.2,1.2-2.9,1.9-4.5,1.9h-3.9v4h7.9c1.6,0,3.2-0.6,4.5-1.9c1.2-1.2,1.9-2.9,1.9-4.5C275,92.3,274.4,90.6,273.1,89.4z"/>
			</g>
			<g>
				<path fill="#474F59" d="M275,152.7v-26.8H0v26.8H275z M16.4,139.2c0,1.7-1.4,3.1-3.1,3.1c-1.7,0-3.1-1.4-3.1-3.1
					c0-1.7,1.4-3.1,3.1-3.1C15,136.1,16.4,137.5,16.4,139.2z"/>
				<g>
					<g>
						<g>
							<rect x="4.1" y="148.7" fill="#FFFFFF" width="0.7" height="3.9"/>
							<rect x="12.9" y="148.7" fill="#FFFFFF" width="0.7" height="3.9"/>
							<rect x="21.8" y="148.7" fill="#FFFFFF" width="0.7" height="3.9"/>
							<rect x="30.7" y="148.7" fill="#FFFFFF" width="0.7" height="3.9"/>
							<rect x="39.6" y="148.7" fill="#FFFFFF" width="0.7" height="3.9"/>
							<rect x="48.4" y="148.7" fill="#FFFFFF" width="0.7" height="3.9"/>
							<rect x="57.3" y="148.7" fill="#FFFFFF" width="0.7" height="3.9"/>
							<rect x="66.2" y="148.7" fill="#FFFFFF" width="0.7" height="3.9"/>
							<rect x="75" y="148.7" fill="#FFFFFF" width="0.7" height="3.9"/>
							<rect x="83.9" y="148.7" fill="#FFFFFF" width="0.7" height="3.9"/>
							<rect x="92.8" y="148.7" fill="#FFFFFF" width="0.7" height="3.9"/>
							<rect x="101.6" y="148.7" fill="#FFFFFF" width="0.7" height="3.9"/>
							<rect x="110.5" y="148.7" fill="#FFFFFF" width="0.7" height="3.9"/>
							<rect x="119.4" y="148.7" fill="#FFFFFF" width="0.7" height="3.9"/>
							<rect x="128.3" y="148.7" fill="#FFFFFF" width="0.7" height="3.9"/>
							<rect x="137.1" y="148.7" fill="#FFFFFF" width="0.7" height="3.9"/>
							<rect x="146" y="148.7" fill="#FFFFFF" width="0.7" height="3.9"/>
							<rect x="154.9" y="148.7" fill="#FFFFFF" width="0.7" height="3.9"/>
							<rect x="163.7" y="148.7" fill="#FFFFFF" width="0.7" height="3.9"/>
							<rect x="172.6" y="148.7" fill="#FFFFFF" width="0.7" height="3.9"/>
							<rect x="181.5" y="148.7" fill="#FFFFFF" width="0.7" height="3.9"/>
							<rect x="190.4" y="148.7" fill="#FFFFFF" width="0.7" height="3.9"/>
							<rect x="199.2" y="148.7" fill="#FFFFFF" width="0.7" height="3.9"/>
							<rect x="208.1" y="148.7" fill="#FFFFFF" width="0.7" height="3.9"/>
							<rect x="217" y="148.7" fill="#FFFFFF" width="0.7" height="3.9"/>
							<rect x="225.8" y="148.7" fill="#FFFFFF" width="0.7" height="3.9"/>
							<rect x="234.7" y="148.7" fill="#FFFFFF" width="0.7" height="3.9"/>
							<rect x="243.6" y="148.7" fill="#FFFFFF" width="0.7" height="3.9"/>
							<rect x="252.5" y="148.7" fill="#FFFFFF" width="0.7" height="3.9"/>
							<rect x="261.3" y="148.7" fill="#FFFFFF" width="0.7" height="3.9"/>
							<rect x="270.2" y="148.7" fill="#FFFFFF" width="0.7" height="3.9"/>
						</g>
						<g>
							<rect x="8.6" y="150.7" fill="#FFFFFF" width="0.5" height="2"/>
							<rect x="17.5" y="150.7" fill="#FFFFFF" width="0.5" height="2"/>
							<rect x="26.4" y="150.7" fill="#FFFFFF" width="0.5" height="2"/>
							<rect x="35.2" y="150.7" fill="#FFFFFF" width="0.5" height="2"/>
							<rect x="44.1" y="150.7" fill="#FFFFFF" width="0.5" height="2"/>
							<rect x="53" y="150.7" fill="#FFFFFF" width="0.5" height="2"/>
							<rect x="61.9" y="150.7" fill="#FFFFFF" width="0.5" height="2"/>
							<rect x="70.7" y="150.7" fill="#FFFFFF" width="0.5" height="2"/>
							<rect x="79.6" y="150.7" fill="#FFFFFF" width="0.5" height="2"/>
							<rect x="88.5" y="150.7" fill="#FFFFFF" width="0.5" height="2"/>
							<rect x="97.3" y="150.7" fill="#FFFFFF" width="0.5" height="2"/>
							<rect x="106.2" y="150.7" fill="#FFFFFF" width="0.5" height="2"/>
							<rect x="115.1" y="150.7" fill="#FFFFFF" width="0.5" height="2"/>
							<rect x="123.9" y="150.7" fill="#FFFFFF" width="0.5" height="2"/>
							<rect x="132.8" y="150.7" fill="#FFFFFF" width="0.5" height="2"/>
							<rect x="141.7" y="150.7" fill="#FFFFFF" width="0.5" height="2"/>
							<rect x="150.6" y="150.7" fill="#FFFFFF" width="0.5" height="2"/>
							<rect x="159.4" y="150.7" fill="#FFFFFF" width="0.5" height="2"/>
							<rect x="168.3" y="150.7" fill="#FFFFFF" width="0.5" height="2"/>
							<rect x="177.2" y="150.7" fill="#FFFFFF" width="0.5" height="2"/>
							<rect x="186" y="150.7" fill="#FFFFFF" width="0.5" height="2"/>
							<rect x="194.9" y="150.7" fill="#FFFFFF" width="0.5" height="2"/>
							<rect x="203.8" y="150.7" fill="#FFFFFF" width="0.5" height="2"/>
							<rect x="212.7" y="150.7" fill="#FFFFFF" width="0.5" height="2"/>
							<rect x="221.5" y="150.7" fill="#FFFFFF" width="0.5" height="2"/>
							<rect x="230.4" y="150.7" fill="#FFFFFF" width="0.5" height="2"/>
							<rect x="239.3" y="150.7" fill="#FFFFFF" width="0.5" height="2"/>
							<rect x="248.1" y="150.7" fill="#FFFFFF" width="0.5" height="2"/>
							<rect x="257" y="150.7" fill="#FFFFFF" width="0.5" height="2"/>
							<rect x="265.9" y="150.7" fill="#FFFFFF" width="0.5" height="2"/>
						</g>
					</g>
				</g>
			</g>
			<polygon fill="#CCCBCA" points="214.1,51.7 60.9,51.7 75,178.2 200,178.2 			"/>
			<g>
				<g>
					<rect x="75" y="12.5" fill="#E6E5E5" width="125.1" height="165.7"/>
					<rect x="81.1" y="20.3" fill="#FFFFFF" width="112.7" height="157.9"/>
					<rect x="75" y="0" fill="#91D3D9" width="125.1" height="6.3"/>
					<rect x="75" y="6.3" fill="#E6E5E5" width="125.1" height="6.3"/>
					<rect x="85.8" y="8.1" fill="#FFFFFF" width="103.4" height="2.5"/>
					<rect x="75" y="3.1" fill="#F68360" width="10.8" height="3.1"/>
					<rect x="85.8" y="3.1" fill="#E6E5E5" width="25.8" height="3.1"/>
					<rect x="111.7" y="3.1" fill="#CCCBCA" width="25.8" height="3.1"/>
					<g>
						<g>
							<rect x="81.1" y="8.1" fill="#CCCBCA" width="2.5" height="2.5"/>
							<rect x="77.1" y="8.1" fill="#CCCBCA" width="2.5" height="2.5"/>
							<rect x="195.4" y="8.1" fill="#CCCBCA" width="2.5" height="2.5"/>
							<rect x="191.4" y="8.1" fill="#CCCBCA" width="2.5" height="2.5"/>
						</g>
					</g>
				</g>
				<g>
					<g>
						<rect x="81.1" y="58.2" fill="#FFC86D" width="112.7" height="43.2"/>
						<g>
							<g>
								<polygon fill="#FFFFFF" points="86.7,79.8 89.6,82.7 89.6,76.9 								"/>
								<polygon fill="#FFFFFF" points="188.3,79.8 185.4,82.7 185.4,76.9 								"/>
							</g>
							<g>
								<rect x="127.3" y="66.7" fill="#474F59" width="29.8" height="2.9"/>
								<rect x="127.3" y="71.7" fill="#FFFFFF" width="49.8" height="0.8"/>
								<rect x="127.3" y="74.6" fill="#FFFFFF" width="49.8" height="0.8"/>
								<rect x="127.3" y="77.6" fill="#FFFFFF" width="49.7" height="0.8"/>
								<rect x="127.3" y="80.5" fill="#FFFFFF" width="41.2" height="0.8"/>
							</g>
							<rect x="97.8" y="66.7" fill="#FFFFFF" width="26.1" height="26.1"/>
						</g>
					</g>
					<g>
						<g>
							<rect x="123.1" y="149.4" fill="#CCCBCA" width="28.8" height="18"/>
							<rect x="123.1" y="167.4" fill="#474F59" width="28.8" height="3.3"/>
							<polygon fill="#FFFFFF" points="135.5,156.1 139.5,158.4 135.5,160.7 							"/>
						</g>
						<g>
							<g>
								<g>
									<rect x="159.5" y="149.4" fill="#CCCBCA" width="14.4" height="1.9"/>
									<rect x="159.5" y="152.9" fill="#CCCBCA" width="28.8" height="0.8"/>
									<rect x="159.5" y="155.4" fill="#CCCBCA" width="28.8" height="0.8"/>
									<rect x="159.5" y="157.8" fill="#CCCBCA" width="28.8" height="0.8"/>
									<rect x="159.5" y="160.3" fill="#CCCBCA" width="28.8" height="0.8"/>
									<rect x="166.7" y="162.7" fill="#CCCBCA" width="14.4" height="0.8"/>
								</g>
							</g>
							<g>
								<rect x="159.5" y="167.4" fill="#474F59" width="21.7" height="3.3"/>
								<rect x="181.1" y="167.4" fill="#FFC86D" width="7.2" height="3.3"/>
							</g>
						</g>
						<g>
							<g>
								<g>
									<g>
										<rect x="86.7" y="162.5" fill="#CCCBCA" width="28.8" height="0.8"/>
										<rect x="86.7" y="165" fill="#CCCBCA" width="28.8" height="0.8"/>
										<rect x="86.7" y="167.5" fill="#CCCBCA" width="28.8" height="0.8"/>
										<rect x="86.7" y="169.9" fill="#CCCBCA" width="18.3" height="0.8"/>
									</g>
								</g>
								<g>
									<g>
										<rect x="100.9" y="149.4" fill="#CCCBCA" width="14.6" height="1.9"/>
										<rect x="100.9" y="152.9" fill="#CCCBCA" width="14.6" height="0.8"/>
										<rect x="100.9" y="155.4" fill="#CCCBCA" width="8.8" height="0.8"/>
									</g>
								</g>
								<g>
									<rect x="86.7" y="149.4" fill="#F68360" width="11.4" height="10.8"/>
								</g>
							</g>
						</g>
					</g>
					<g>
						<g>
							<g>
								<g>
									<g>
										<rect x="106.8" y="39.9" fill="#F68360" width="7.1" height="7.1"/>
									</g>
									<g>
										<g>
											<rect x="104.6" y="49.2" fill="#474F59" width="11.6" height="0.4"/>
											<rect x="104.6" y="50.5" fill="#474F59" width="11.6" height="0.4"/>
											<rect x="107.4" y="51.8" fill="#474F59" width="5.9" height="0.4"/>
										</g>
									</g>
								</g>
								<g>
									<g>
										<rect x="124.9" y="39.9" fill="#F68360" width="7.1" height="7.1"/>
									</g>
									<g>
										<g>
											<rect x="122.7" y="49.2" fill="#474F59" width="11.6" height="0.4"/>
											<rect x="122.7" y="50.5" fill="#474F59" width="11.6" height="0.4"/>
											<rect x="125.5" y="51.8" fill="#474F59" width="5.9" height="0.4"/>
										</g>
									</g>
								</g>
								<g>
									<g>
										<rect x="143" y="39.9" fill="#F68360" width="7.1" height="7.1"/>
									</g>
									<g>
										<g>
											<rect x="140.8" y="49.2" fill="#474F59" width="11.6" height="0.4"/>
											<rect x="140.8" y="50.5" fill="#474F59" width="11.6" height="0.4"/>
											<rect x="143.6" y="51.8" fill="#474F59" width="5.9" height="0.4"/>
										</g>
									</g>
								</g>
								<g>
									<g>
										<rect x="161.1" y="39.9" fill="#F68360" width="7.1" height="7.1"/>
									</g>
									<g>
										<g>
											<rect x="158.8" y="49.2" fill="#474F59" width="11.6" height="0.4"/>
											<rect x="158.8" y="50.5" fill="#474F59" width="11.6" height="0.4"/>
											<rect x="161.7" y="51.8" fill="#474F59" width="5.9" height="0.4"/>
										</g>
									</g>
								</g>
							</g>
						</g>
					</g>
					<g>
						<g>
							<g>
								<rect x="86.7" y="131.1" fill="#474F59" width="28.8" height="2.4"/>
								<rect x="86.7" y="135.8" fill="#CCCBCA" width="28.8" height="0.8"/>
								<rect x="86.7" y="138.5" fill="#CCCBCA" width="28.8" height="0.8"/>
								<rect x="94.7" y="141.1" fill="#CCCBCA" width="12.9" height="0.8"/>
							</g>
							<rect x="86.7" y="108.9" fill="#FFC86D" width="28.8" height="17.6"/>
						</g>
						<g>
							<g>
								<rect x="123.1" y="131.1" fill="#474F59" width="28.8" height="2.4"/>
								<rect x="123.1" y="135.8" fill="#CCCBCA" width="28.8" height="0.8"/>
								<rect x="123.1" y="138.5" fill="#CCCBCA" width="28.8" height="0.8"/>
								<rect x="131.1" y="141.1" fill="#CCCBCA" width="12.9" height="0.8"/>
							</g>
							<rect x="123.1" y="108.9" fill="#FFC86D" width="28.8" height="17.6"/>
						</g>
						<g>
							<g>
								<rect x="159.5" y="131.1" fill="#474F59" width="28.8" height="2.4"/>
								<rect x="159.5" y="135.8" fill="#CCCBCA" width="28.8" height="0.8"/>
								<rect x="159.5" y="138.5" fill="#CCCBCA" width="28.8" height="0.8"/>
								<rect x="167.4" y="141.1" fill="#CCCBCA" width="12.9" height="0.8"/>
							</g>
							<rect x="159.5" y="108.9" fill="#F68360" width="28.8" height="17.6"/>
						</g>
					</g>
					<g>
						<rect x="86.7" y="26.2" fill="#FFC86D" width="89.3" height="7.8"/>
						<rect x="145.3" y="28.3" fill="#FFFFFF" width="28.7" height="3.6"/>
						<rect x="176" y="26.2" fill="#474F59" width="12.3" height="7.8"/>
						<g>
							<rect x="89.2" y="29.7" fill="#FFFFFF" width="8" height="1"/>
							<rect x="99.7" y="29.7" fill="#FFFFFF" width="8" height="1"/>
							<rect x="110.2" y="29.7" fill="#FFFFFF" width="8" height="1"/>
							<rect x="120.6" y="29.7" fill="#FFFFFF" width="8" height="1"/>
						</g>
					</g>
					<g>
						<rect x="75" y="12.5" fill="#F68360" width="125.1" height="7.8"/>
						<g>
							<g>
								<rect x="81.1" y="15.9" fill="#FFFFFF" width="26.9" height="1.1"/>
								<rect x="120.3" y="15.9" fill="#FFFFFF" width="7.4" height="1.1"/>
								<rect x="130.1" y="15.9" fill="#FFFFFF" width="7.4" height="1.1"/>
							</g>
						</g>
						<g>
							<rect x="159" y="15.1" fill="#FFFFFF" width="12.3" height="2.6"/>
							<rect x="173.1" y="15.1" fill="#FFFFFF" width="12.3" height="2.6"/>
							<rect x="187.2" y="15.1" fill="#474F59" width="6.7" height="2.6"/>
						</g>
					</g>
				</g>
			</g>
		</g>
	</g>
</g>
</svg>
