<?xml version="1.0" encoding="utf-8"?>
<!-- Generator: Adobe Illustrator 18.1.0, SVG Export Plug-In . SVG Version: 6.00 Build 0)  -->
<!DOCTYPE svg PUBLIC "-//W3C//DTD SVG 1.1//EN" "http://www.w3.org/Graphics/SVG/1.1/DTD/svg11.dtd">
<svg version="1.1" id="Layer_1" xmlns="http://www.w3.org/2000/svg" xmlns:xlink="http://www.w3.org/1999/xlink" x="0px" y="0px"
	 viewBox="0 0 271 260" enable-background="new 0 0 271 260" xml:space="preserve">
<g>
	<g>
		<defs>
			<circle id="SVGID_1_" cx="138.6" cy="130" r="130"/>
		</defs>
		<use xlink:href="#SVGID_1_"  overflow="visible" fill="#ABE0E5"/>
		<clipPath id="SVGID_2_">
			<use xlink:href="#SVGID_1_"  overflow="visible"/>
		</clipPath>
		<g clip-path="url(#SVGID_2_)">
			<rect x="155.3" y="17.5" fill="#F2F2F2" width="103" height="72.8"/>
			<g>
				<g>
					<g>
						<rect x="220.3" y="43.8" fill="#CCCBCA" width="1.2" height="5.1"/>
						<rect x="227.9" y="55.9" fill="#CCCBCA" width="7" height="1.2"/>
						<rect x="241.4" y="64.2" fill="#CCCBCA" width="1.2" height="5.1"/>
						<rect x="220.3" y="64.2" fill="#CCCBCA" width="1.2" height="5.1"/>
						<rect x="191.9" y="43.8" fill="#CCCBCA" width="1.2" height="5.1"/>
						<rect x="178" y="33.5" fill="#CCCBCA" width="1.2" height="5.1"/>
						<rect x="191.9" y="59.1" fill="#CCCBCA" width="1.2" height="5.1"/>
						<rect x="178.6" y="71.2" fill="#CCCBCA" width="6.8" height="1.2"/>
					</g>
				</g>
				<g>
					<rect x="171.6" y="38.7" fill="#CCCBCA" width="70.4" height="5.1"/>
					<rect x="229.7" y="40.6" fill="#FFFFFF" width="10.6" height="1.2"/>
					<rect x="213.8" y="38.7" fill="#353F49" width="14.1" height="5.1"/>
					<rect x="215.6" y="40.6" fill="#CCCBCA" width="10.6" height="1.2"/>
					<rect x="201.5" y="40.6" fill="#FFFFFF" width="10.6" height="1.2"/>
					<rect x="187.4" y="40.6" fill="#FFFFFF" width="10.6" height="1.2"/>
					<rect x="173.4" y="40.6" fill="#FFFFFF" width="10.6" height="1.2"/>
				</g>
				<rect x="213.8" y="48.9" fill="#CCCBCA" width="14.1" height="15.3"/>
				<rect x="185.5" y="48.9" fill="#CCCBCA" width="14.1" height="10.2"/>
				<rect x="164.6" y="69.3" fill="#CCCBCA" width="14.1" height="5.1"/>
				<rect x="234.9" y="69.3" fill="#CCCBCA" width="14.1" height="10.2"/>
				<rect x="234.9" y="48.9" fill="#353F49" width="14.1" height="15.3"/>
				<rect x="213.8" y="69.3" fill="#CCCBCA" width="14.1" height="5.1"/>
				<rect x="171.6" y="28.4" fill="#353F49" width="14.1" height="5.1"/>
				<rect x="185.5" y="64.2" fill="#353F49" width="14.1" height="15.3"/>
				<rect x="173.4" y="30.4" fill="#656A73" width="10.6" height="1.2"/>
				<rect x="166.3" y="71.2" fill="#FFFFFF" width="10.6" height="1.2"/>
				<g>
					<g>
						<rect x="187.2" y="50.8" fill="#FFFFFF" width="10.6" height="1.2"/>
						<rect x="189.9" y="55.9" fill="#FFFFFF" width="5.1" height="1.2"/>
					</g>
				</g>
				<g>
					<g>
						<rect x="236.7" y="71.2" fill="#FFFFFF" width="10.6" height="1.2"/>
						<rect x="236.7" y="76.3" fill="#FFFFFF" width="6.2" height="1.2"/>
					</g>
				</g>
				<g>
					<g>
						<rect x="187.2" y="66.1" fill="#656A73" width="10.6" height="1.2"/>
						<rect x="191.9" y="71.2" fill="#656A73" width="5.9" height="1.2"/>
						<rect x="187.2" y="71.2" fill="#656A73" width="2.9" height="1.2"/>
						<rect x="192.2" y="76.3" fill="#656A73" width="2.7" height="1.2"/>
						<rect x="187.2" y="76.3" fill="#656A73" width="4.2" height="1.2"/>
					</g>
				</g>
				<rect x="215.6" y="71.2" fill="#FFFFFF" width="10.6" height="1.2"/>
				<g>
					<g>
						<rect x="220.9" y="50.8" fill="#FFFFFF" width="5.3" height="1.2"/>
						<rect x="215.6" y="50.8" fill="#FFFFFF" width="3.7" height="1.2"/>
						<rect x="215.6" y="55.9" fill="#FFFFFF" width="10.6" height="1.2"/>
						<rect x="215.6" y="61" fill="#FFFFFF" width="7.5" height="1.2"/>
					</g>
				</g>
				<g>
					<g>
						<rect x="236.7" y="50.8" fill="#656A73" width="10.6" height="1.2"/>
						<rect x="236.7" y="55.9" fill="#656A73" width="6.4" height="1.2"/>
						<rect x="244.5" y="55.9" fill="#656A73" width="2.8" height="1.2"/>
						<rect x="236.7" y="61" fill="#656A73" width="4.7" height="1.2"/>
					</g>
				</g>
			</g>
		</g>
	</g>
	<g>
		<g>
			<g>
				<path fill="#D9D8D7" d="M16.3,137.3v85.4c0,1.9,0.7,3.8,2.2,5.2c1.5,1.4,3.4,2.2,5.3,2.2h143.4c1.9,0,3.8-0.7,5.3-2.2
					c1.4-1.4,2.2-3.3,2.2-5.2v-85.4H16.3z"/>
				<path fill="#FFFFFF" d="M115.1,223.6c0,0.3-0.3,0.6-0.6,0.6H76.4c-0.3,0-0.6-0.3-0.6-0.6V201c0-0.3,0.3-0.6,0.6-0.6h38.1
					c0.3,0,0.6,0.3,0.6,0.6V223.6z"/>
				<g>
					<path fill="#FFFFFF" d="M33.7,154c0,0.3-0.2,0.5-0.5,0.5h-7.1c-0.3,0-0.5-0.2-0.5-0.5V147c0-0.3,0.2-0.5,0.5-0.5h7.1
						c0.3,0,0.5,0.2,0.5,0.5V154z"/>
					<path fill="#FFFFFF" d="M48.4,163.8c0,0.3-0.2,0.5-0.5,0.5h-7.1c-0.3,0-0.5-0.2-0.5-0.5v-7.1c0-0.2,0.2-0.5,0.5-0.5h7.1
						c0.3,0,0.5,0.2,0.5,0.5V163.8z"/>
					<path fill="#FFFFFF" d="M50.7,173.5c0,0.3-0.2,0.5-0.5,0.5h-7.1c-0.3,0-0.5-0.2-0.5-0.5v-7.1c0-0.3,0.2-0.5,0.5-0.5h7.1
						c0.3,0,0.5,0.2,0.5,0.5V173.5z"/>
					<path fill="#FFFFFF" d="M45.9,183.2c0,0.3-0.2,0.5-0.5,0.5h-7.1c-0.3,0-0.5-0.2-0.5-0.5v-7.1c0-0.3,0.2-0.5,0.5-0.5h7.1
						c0.3,0,0.5,0.2,0.5,0.5V183.2z"/>
					<path fill="#FFFFFF" d="M33.7,194.1c0,0.3-0.2,0.5-0.5,0.5h-7.1c-0.3,0-0.5-0.2-0.5-0.5v-8.3c0-0.2,0.2-0.5,0.5-0.5h7.1
						c0.3,0,0.5,0.2,0.5,0.5V194.1z"/>
					<path fill="#FFFFFF" d="M43.4,194.1c0,0.3-0.2,0.5-0.5,0.5h-7.1c-0.3,0-0.5-0.2-0.5-0.5v-8.3c0-0.2,0.2-0.5,0.5-0.5H43
						c0.3,0,0.5,0.2,0.5,0.5V194.1z"/>
					<path fill="#FFFFFF" d="M53.1,194.1c0,0.3-0.2,0.5-0.5,0.5h-7.1c-0.3,0-0.5-0.2-0.5-0.5v-8.3c0-0.2,0.2-0.5,0.5-0.5h7.1
						c0.3,0,0.5,0.2,0.5,0.5V194.1z"/>
					<path fill="#FFFFFF" d="M135.9,194.1c0,0.3-0.2,0.5-0.5,0.5h-7.1c-0.3,0-0.5-0.2-0.5-0.5v-8.3c0-0.2,0.2-0.5,0.5-0.5h7.1
						c0.3,0,0.5,0.2,0.5,0.5V194.1z"/>
					<path fill="#FFFFFF" d="M145.7,194.1c0,0.3-0.2,0.5-0.5,0.5h-7.1c-0.3,0-0.5-0.2-0.5-0.5v-3.7c0-0.3,0.2-0.5,0.5-0.5h7.1
						c0.3,0,0.5,0.2,0.5,0.5V194.1z"/>
					<path fill="#FFFFFF" d="M165.1,194.1c0,0.3-0.2,0.5-0.5,0.5h-7.1c-0.3,0-0.5-0.2-0.5-0.5v-3.7c0-0.3,0.2-0.5,0.5-0.5h7.1
						c0.3,0,0.5,0.2,0.5,0.5V194.1z"/>
					<path fill="#FFFFFF" d="M65.4,194.1c0,0.3-0.2,0.5-0.5,0.5h-9.6c-0.3,0-0.5-0.2-0.5-0.5v-8.3c0-0.2,0.2-0.5,0.5-0.5h9.6
						c0.2,0,0.5,0.2,0.5,0.5V194.1z"/>
					<path fill="#FFFFFF" d="M126.2,194.1c0,0.3-0.2,0.5-0.5,0.5h-9.6c-0.3,0-0.5-0.2-0.5-0.5v-8.3c0-0.2,0.2-0.5,0.5-0.5h9.6
						c0.3,0,0.5,0.2,0.5,0.5V194.1z"/>
					<path fill="#FFFFFF" d="M114,194.1c0,0.3-0.2,0.5-0.5,0.5H67.6c-0.3,0-0.5-0.2-0.5-0.5v-8.3c0-0.2,0.2-0.5,0.5-0.5h45.9
						c0.3,0,0.5,0.2,0.5,0.5V194.1z"/>
					<path fill="#FFFFFF" d="M55.6,183.2c0,0.3-0.2,0.5-0.5,0.5h-7.1c-0.2,0-0.5-0.2-0.5-0.5v-7.1c0-0.3,0.2-0.5,0.5-0.5h7.1
						c0.3,0,0.5,0.2,0.5,0.5V183.2z"/>
					<path fill="#FFFFFF" d="M65.4,183.2c0,0.3-0.2,0.5-0.5,0.5h-7.1c-0.3,0-0.5-0.2-0.5-0.5v-7.1c0-0.3,0.2-0.5,0.5-0.5h7.1
						c0.2,0,0.5,0.2,0.5,0.5V183.2z"/>
					<path fill="#FFFFFF" d="M75.1,183.2c0,0.3-0.2,0.5-0.5,0.5h-7.1c-0.3,0-0.5-0.2-0.5-0.5v-7.1c0-0.3,0.2-0.5,0.5-0.5h7.1
						c0.3,0,0.5,0.2,0.5,0.5V183.2z"/>
					<path fill="#FFFFFF" d="M84.8,183.2c0,0.3-0.2,0.5-0.5,0.5h-7.1c-0.3,0-0.5-0.2-0.5-0.5v-7.1c0-0.3,0.2-0.5,0.5-0.5h7.1
						c0.3,0,0.5,0.2,0.5,0.5V183.2z"/>
					<path fill="#FFFFFF" d="M94.5,183.2c0,0.3-0.2,0.5-0.5,0.5H87c-0.2,0-0.5-0.2-0.5-0.5v-7.1c0-0.3,0.2-0.5,0.5-0.5h7.1
						c0.3,0,0.5,0.2,0.5,0.5V183.2z"/>
					<path fill="#FFFFFF" d="M104.2,183.2c0,0.3-0.2,0.5-0.5,0.5h-7.1c-0.3,0-0.5-0.2-0.5-0.5v-7.1c0-0.3,0.2-0.5,0.5-0.5h7.1
						c0.3,0,0.5,0.2,0.5,0.5V183.2z"/>
					<path fill="#FFFFFF" d="M114,183.2c0,0.3-0.2,0.5-0.5,0.5h-7.1c-0.2,0-0.5-0.2-0.5-0.5v-7.1c0-0.3,0.2-0.5,0.5-0.5h7.1
						c0.3,0,0.5,0.2,0.5,0.5V183.2z"/>
					<path fill="#FFFFFF" d="M123.7,183.2c0,0.3-0.2,0.5-0.5,0.5h-7.1c-0.3,0-0.5-0.2-0.5-0.5v-7.1c0-0.3,0.2-0.5,0.5-0.5h7.1
						c0.3,0,0.5,0.2,0.5,0.5V183.2z"/>
					<path fill="#FFFFFF" d="M133.4,183.2c0,0.3-0.2,0.5-0.5,0.5h-7.1c-0.3,0-0.5-0.2-0.5-0.5v-7.1c0-0.3,0.2-0.5,0.5-0.5h7.1
						c0.3,0,0.5,0.2,0.5,0.5V183.2z"/>
					<path fill="#FFFFFF" d="M143.1,183.2c0,0.3-0.2,0.5-0.5,0.5h-7.1c-0.3,0-0.5-0.2-0.5-0.5v-7.1c0-0.3,0.2-0.5,0.5-0.5h7.1
						c0.3,0,0.5,0.2,0.5,0.5V183.2z"/>
					<path fill="#FFFFFF" d="M165.1,183.2c0,0.3-0.2,0.5-0.5,0.5h-19.2c-0.3,0-0.5-0.2-0.5-0.5v-7.1c0-0.3,0.2-0.5,0.5-0.5h19.2
						c0.3,0,0.5,0.2,0.5,0.5V183.2z"/>
					<path fill="#FFFFFF" d="M60.4,173.5c0,0.3-0.2,0.5-0.5,0.5h-7.1c-0.3,0-0.5-0.2-0.5-0.5v-7.1c0-0.3,0.2-0.5,0.5-0.5h7.1
						c0.3,0,0.5,0.2,0.5,0.5V173.5z"/>
					<path fill="#FFFFFF" d="M70.1,173.5c0,0.3-0.2,0.5-0.5,0.5h-7.1c-0.2,0-0.5-0.2-0.5-0.5v-7.1c0-0.3,0.2-0.5,0.5-0.5h7.1
						c0.3,0,0.5,0.2,0.5,0.5V173.5z"/>
					<path fill="#FFFFFF" d="M79.8,173.5c0,0.3-0.2,0.5-0.5,0.5h-7.1c-0.2,0-0.5-0.2-0.5-0.5v-7.1c0-0.3,0.2-0.5,0.5-0.5h7.1
						c0.3,0,0.5,0.2,0.5,0.5V173.5z"/>
					<path fill="#FFFFFF" d="M89.6,173.5c0,0.3-0.2,0.5-0.5,0.5H82c-0.3,0-0.5-0.2-0.5-0.5v-7.1c0-0.3,0.2-0.5,0.5-0.5h7.1
						c0.2,0,0.5,0.2,0.5,0.5V173.5z"/>
					<path fill="#FFFFFF" d="M99.3,173.5c0,0.3-0.2,0.5-0.5,0.5h-7.1c-0.2,0-0.5-0.2-0.5-0.5v-7.1c0-0.3,0.2-0.5,0.5-0.5h7.1
						c0.3,0,0.5,0.2,0.5,0.5V173.5z"/>
					<path fill="#FFFFFF" d="M109,173.5c0,0.3-0.2,0.5-0.5,0.5h-7.1c-0.3,0-0.5-0.2-0.5-0.5v-7.1c0-0.3,0.2-0.5,0.5-0.5h7.1
						c0.3,0,0.5,0.2,0.5,0.5V173.5z"/>
					<path fill="#FFFFFF" d="M118.7,173.5c0,0.3-0.2,0.5-0.5,0.5h-7.1c-0.3,0-0.5-0.2-0.5-0.5v-7.1c0-0.3,0.2-0.5,0.5-0.5h7.1
						c0.3,0,0.5,0.2,0.5,0.5V173.5z"/>
					<path fill="#FFFFFF" d="M128.5,173.5c0,0.3-0.2,0.5-0.5,0.5h-7.1c-0.3,0-0.5-0.2-0.5-0.5v-7.1c0-0.3,0.2-0.5,0.5-0.5h7.1
						c0.3,0,0.5,0.2,0.5,0.5V173.5z"/>
					<path fill="#FFFFFF" d="M138.2,173.5c0,0.3-0.2,0.5-0.5,0.5h-7.1c-0.3,0-0.5-0.2-0.5-0.5v-7.1c0-0.3,0.2-0.5,0.5-0.5h7.1
						c0.3,0,0.5,0.2,0.5,0.5V173.5z"/>
					<path fill="#FFFFFF" d="M147.9,173.5c0,0.3-0.2,0.5-0.5,0.5h-7.1c-0.3,0-0.5-0.2-0.5-0.5v-7.1c0-0.3,0.2-0.5,0.5-0.5h7.1
						c0.3,0,0.5,0.2,0.5,0.5V173.5z"/>
					<path fill="#FFFFFF" d="M157.6,173.5c0,0.3-0.2,0.5-0.5,0.5h-7.1c-0.3,0-0.5-0.2-0.5-0.5v-7.1c0-0.3,0.2-0.5,0.5-0.5h7.1
						c0.3,0,0.5,0.2,0.5,0.5V173.5z"/>
					<path fill="#FFFFFF" d="M58.1,163.8c0,0.3-0.2,0.5-0.5,0.5h-7.1c-0.3,0-0.5-0.2-0.5-0.5v-7.1c0-0.2,0.2-0.5,0.5-0.5h7.1
						c0.3,0,0.5,0.2,0.5,0.5V163.8z"/>
					<path fill="#FFFFFF" d="M67.8,163.8c0,0.3-0.2,0.5-0.5,0.5h-7.1c-0.3,0-0.5-0.2-0.5-0.5v-7.1c0-0.2,0.2-0.5,0.5-0.5h7.1
						c0.3,0,0.5,0.2,0.5,0.5V163.8z"/>
					<path fill="#FFFFFF" d="M77.5,163.8c0,0.3-0.2,0.5-0.5,0.5H70c-0.3,0-0.5-0.2-0.5-0.5v-7.1c0-0.2,0.2-0.5,0.5-0.5h7.1
						c0.3,0,0.5,0.2,0.5,0.5V163.8z"/>
					<path fill="#FFFFFF" d="M87.3,163.8c0,0.3-0.2,0.5-0.5,0.5h-7.1c-0.3,0-0.5-0.2-0.5-0.5v-7.1c0-0.2,0.2-0.5,0.5-0.5h7.1
						c0.2,0,0.5,0.2,0.5,0.5V163.8z"/>
					<path fill="#FFFFFF" d="M97,163.8c0,0.3-0.2,0.5-0.5,0.5h-7.1c-0.3,0-0.5-0.2-0.5-0.5v-7.1c0-0.2,0.2-0.5,0.5-0.5h7.1
						c0.3,0,0.5,0.2,0.5,0.5V163.8z"/>
					<path fill="#FFFFFF" d="M106.7,163.8c0,0.3-0.2,0.5-0.5,0.5h-7.1c-0.3,0-0.5-0.2-0.5-0.5v-7.1c0-0.2,0.2-0.5,0.5-0.5h7.1
						c0.3,0,0.5,0.2,0.5,0.5V163.8z"/>
					<path fill="#FFFFFF" d="M116.4,163.8c0,0.3-0.2,0.5-0.5,0.5h-7.1c-0.3,0-0.5-0.2-0.5-0.5v-7.1c0-0.2,0.2-0.5,0.5-0.5h7.1
						c0.3,0,0.5,0.2,0.5,0.5V163.8z"/>
					<path fill="#FFFFFF" d="M126.2,163.8c0,0.3-0.2,0.5-0.5,0.5h-7.1c-0.3,0-0.5-0.2-0.5-0.5v-7.1c0-0.2,0.2-0.5,0.5-0.5h7.1
						c0.3,0,0.5,0.2,0.5,0.5V163.8z"/>
					<path fill="#FFFFFF" d="M135.9,163.8c0,0.3-0.2,0.5-0.5,0.5h-7.1c-0.3,0-0.5-0.2-0.5-0.5v-7.1c0-0.2,0.2-0.5,0.5-0.5h7.1
						c0.2,0,0.5,0.2,0.5,0.5V163.8z"/>
					<path fill="#FFFFFF" d="M145.6,163.8c0,0.3-0.2,0.5-0.5,0.5h-7.1c-0.2,0-0.5-0.2-0.5-0.5v-7.1c0-0.2,0.2-0.5,0.5-0.5h7.1
						c0.3,0,0.5,0.2,0.5,0.5V163.8z"/>
					<path fill="#FFFFFF" d="M155.3,163.8c0,0.3-0.2,0.5-0.5,0.5h-7.1c-0.2,0-0.5-0.2-0.5-0.5v-7.1c0-0.2,0.2-0.5,0.5-0.5h7.1
						c0.3,0,0.5,0.2,0.5,0.5V163.8z"/>
					<path fill="#FFFFFF" d="M38.7,163.8c0,0.3-0.2,0.5-0.5,0.5h-12c-0.3,0-0.5-0.2-0.5-0.5v-7.1c0-0.2,0.2-0.5,0.5-0.5h12
						c0.3,0,0.5,0.2,0.5,0.5V163.8z"/>
					<path fill="#FFFFFF" d="M165.1,154c0,0.3-0.2,0.5-0.5,0.5h-12c-0.2,0-0.5-0.2-0.5-0.5V147c0-0.3,0.2-0.5,0.5-0.5h12
						c0.2,0,0.5,0.2,0.5,0.5V154z"/>
					<path fill="#FFFFFF" d="M41,173.5c0,0.3-0.2,0.5-0.5,0.5H26.2c-0.3,0-0.5-0.2-0.5-0.5v-7.1c0-0.3,0.2-0.5,0.5-0.5h14.3
						c0.3,0,0.5,0.2,0.5,0.5V173.5z"/>
					<path fill="#FFFFFF" d="M36.2,183.2c0,0.3-0.2,0.5-0.5,0.5h-9.5c-0.3,0-0.5-0.2-0.5-0.5v-7.1c0-0.3,0.2-0.5,0.5-0.5h9.5
						c0.3,0,0.5,0.2,0.5,0.5V183.2z"/>
					<path fill="#FFFFFF" d="M43.5,154c0,0.3-0.2,0.5-0.5,0.5h-7.1c-0.3,0-0.5-0.2-0.5-0.5V147c0-0.3,0.2-0.5,0.5-0.5H43
						c0.3,0,0.5,0.2,0.5,0.5V154z"/>
					<path fill="#FFFFFF" d="M53.2,154c0,0.3-0.2,0.5-0.5,0.5h-7.1c-0.3,0-0.5-0.2-0.5-0.5V147c0-0.3,0.2-0.5,0.5-0.5h7.1
						c0.3,0,0.5,0.2,0.5,0.5V154z"/>
					<path fill="#FFFFFF" d="M62.9,154c0,0.3-0.2,0.5-0.5,0.5h-7.1c-0.3,0-0.5-0.2-0.5-0.5V147c0-0.3,0.2-0.5,0.5-0.5h7.1
						c0.3,0,0.5,0.2,0.5,0.5V154z"/>
					<path fill="#FFFFFF" d="M72.6,154c0,0.3-0.2,0.5-0.5,0.5h-7.1c-0.3,0-0.5-0.2-0.5-0.5V147c0-0.3,0.2-0.5,0.5-0.5h7.1
						c0.3,0,0.5,0.2,0.5,0.5V154z"/>
					<path fill="#FFFFFF" d="M82.3,154c0,0.3-0.2,0.5-0.5,0.5h-7.1c-0.3,0-0.5-0.2-0.5-0.5V147c0-0.3,0.2-0.5,0.5-0.5h7.1
						c0.3,0,0.5,0.2,0.5,0.5V154z"/>
					<path fill="#FFFFFF" d="M92.1,154c0,0.3-0.2,0.5-0.5,0.5h-7.1c-0.3,0-0.5-0.2-0.5-0.5V147c0-0.3,0.2-0.5,0.5-0.5h7.1
						c0.3,0,0.5,0.2,0.5,0.5V154z"/>
					<path fill="#FFFFFF" d="M101.8,154c0,0.3-0.2,0.5-0.5,0.5h-7.1c-0.3,0-0.5-0.2-0.5-0.5V147c0-0.3,0.2-0.5,0.5-0.5h7.1
						c0.3,0,0.5,0.2,0.5,0.5V154z"/>
					<path fill="#FFFFFF" d="M111.5,154c0,0.3-0.2,0.5-0.5,0.5H104c-0.3,0-0.5-0.2-0.5-0.5V147c0-0.3,0.2-0.5,0.5-0.5h7.1
						c0.3,0,0.5,0.2,0.5,0.5V154z"/>
					<path fill="#FFFFFF" d="M121.2,154c0,0.3-0.2,0.5-0.5,0.5h-7.1c-0.3,0-0.5-0.2-0.5-0.5V147c0-0.3,0.2-0.5,0.5-0.5h7.1
						c0.3,0,0.5,0.2,0.5,0.5V154z"/>
					<path fill="#FFFFFF" d="M131,154c0,0.3-0.2,0.5-0.5,0.5h-7.1c-0.3,0-0.5-0.2-0.5-0.5V147c0-0.3,0.2-0.5,0.5-0.5h7.1
						c0.3,0,0.5,0.2,0.5,0.5V154z"/>
					<path fill="#FFFFFF" d="M140.7,154c0,0.3-0.2,0.5-0.5,0.5h-7.1c-0.3,0-0.5-0.2-0.5-0.5V147c0-0.3,0.2-0.5,0.5-0.5h7.1
						c0.3,0,0.5,0.2,0.5,0.5V154z"/>
					<path fill="#FFFFFF" d="M150.4,154c0,0.3-0.2,0.5-0.5,0.5h-7.1c-0.3,0-0.5-0.2-0.5-0.5V147c0-0.3,0.2-0.5,0.5-0.5h7.1
						c0.3,0,0.5,0.2,0.5,0.5V154z"/>
					<g>
						<path fill="#FFFFFF" d="M147.4,190.3v3.9c0,0.1,0,0.2,0.1,0.3c0.1,0.1,0.2,0.1,0.3,0.1h7.1c0.1,0,0.2,0,0.3-0.1
							c0.1-0.1,0.1-0.2,0.1-0.3v-3.9H147.4z"/>
						<path fill="#FFFFFF" d="M155.4,189.7v-3.9c0-0.1,0-0.2-0.1-0.3c-0.1-0.1-0.2-0.1-0.3-0.1h-7.1c-0.1,0-0.2,0-0.3,0.1
							c-0.1,0.1-0.1,0.2-0.1,0.3v3.9H155.4z"/>
					</g>
					<path fill="#FFFFFF" d="M157.6,156.2c-0.1,0-0.2,0-0.3,0.1c-0.1,0.1-0.1,0.2-0.1,0.3v7.1c0,0.1,0,0.2,0.1,0.3
						c0.1,0.1,0.2,0.1,0.3,0.1h1.8v9.3c0,0.1,0,0.2,0.1,0.3c0.1,0.1,0.2,0.1,0.3,0.1h4.8c0.1,0,0.2,0,0.3-0.1
						c0.1-0.1,0.1-0.2,0.1-0.3v-16.8c0-0.1,0-0.2-0.1-0.3c-0.1-0.1-0.2-0.1-0.3-0.1H157.6z"/>
				</g>
			</g>
			<g>
				<path fill="#232E38" d="M23.8,44.5c-1.9,0-3.8,0.7-5.3,2.2c-1.4,1.5-2.2,3.4-2.2,5.2v85.4h158.2V51.9c0-1.9-0.7-3.8-2.2-5.2
					c-1.4-1.4-3.4-2.2-5.3-2.2H23.8z"/>
				<g>
					<path fill="#474F59" d="M97.2,48.6c0,1-0.8,1.8-1.8,1.8c-1,0-1.8-0.8-1.8-1.8c0-1,0.8-1.8,1.8-1.8
						C96.4,46.8,97.2,47.6,97.2,48.6z"/>
					<path fill="#FFFFFF" d="M96.2,48.6c0,0.4-0.3,0.7-0.7,0.7c-0.4,0-0.7-0.3-0.7-0.7c0-0.4,0.3-0.7,0.7-0.7
						C95.8,47.9,96.2,48.2,96.2,48.6z"/>
				</g>
				<g>
					<g>
						<rect x="159.9" y="133.9" fill="#474F59" width="10.4" height="6.7"/>
						<rect x="159.9" y="137.3" fill="#232E38" width="10.4" height="3.3"/>
					</g>
					<g>
						<rect x="20.6" y="133.9" fill="#474F59" width="10.4" height="6.7"/>
						<rect x="20.6" y="137.3" fill="#232E38" width="10.4" height="3.3"/>
					</g>
				</g>
				<g>
					<rect x="95.4" y="53.7" fill="#F68360" width="69.7" height="74.3"/>
					<g>
						<g>
							<g>
								<g>
									<rect x="100.6" y="64.5" fill="#ED6D47" width="17.8" height="2.7"/>
									<rect x="121.3" y="64.5" fill="#ED6D47" width="17.8" height="2.7"/>
									<rect x="142.1" y="64.5" fill="#ED6D47" width="17.8" height="2.7"/>
								</g>
							</g>
							<rect x="100.5" y="77.3" fill="#FF9978" width="16.2" height="2.7"/>
							<g>
								<rect x="100.5" y="84.8" fill="#FF9978" width="16.2" height="12.1"/>
							</g>
							<g>
								<rect x="120.1" y="84.8" fill="#FF9978" width="16.2" height="12.1"/>
							</g>
							<g>
								<rect x="120.1" y="84.8" fill="#FF9978" width="16.2" height="12.1"/>
							</g>
							<g>
								<g>
									<rect x="100.5" y="99.8" fill="#ED6D47" width="16.2" height="2.7"/>
									<rect x="100.5" y="111.7" fill="#FF9978" width="35.8" height="2.7"/>
									<rect x="151.9" y="117.8" fill="#FF9978" width="8.1" height="2.7"/>
									<rect x="100.5" y="117.8" fill="#ED6D47" width="16.2" height="2.7"/>
									<rect x="100.5" y="106" fill="#FF9978" width="6.7" height="2.7"/>
									<rect x="110" y="106" fill="#FF9978" width="6.7" height="2.7"/>
									<rect x="120.1" y="99.8" fill="#FF9978" width="16.2" height="2.7"/>
									<rect x="151.9" y="99.8" fill="#ED6D47" width="8.1" height="2.7"/>
								</g>
							</g>
							<rect x="120.1" y="77.3" fill="#FF9978" width="39.9" height="2.7"/>
							<g>
								<g>
									<rect x="139.7" y="84.8" fill="#FF9978" width="20.3" height="1.1"/>
									<rect x="139.7" y="87.3" fill="#FF9978" width="20.3" height="1.1"/>
									<rect x="139.7" y="89.9" fill="#FF9978" width="10.2" height="1.1"/>
								</g>
							</g>
						</g>
					</g>
				</g>
				<g>
					<rect x="25.8" y="53.7" fill="#353F49" width="69.7" height="74.3"/>
					<g>
						<g>
							<g>
								<rect x="33.6" y="59.3" fill="#656A73" width="3.7" height="1.9"/>
							</g>
							<rect x="33.6" y="72.1" fill="#656A73" width="3.7" height="1.9"/>
							<g>
								<rect x="38.3" y="59.3" fill="#656A73" width="17.3" height="1.9"/>
							</g>
							<rect x="38.3" y="72.1" fill="#656A73" width="13.3" height="1.9"/>
							<rect x="37.3" y="64.1" fill="#656A73" width="5.8" height="1.9"/>
							<rect x="37.3" y="86.7" fill="#656A73" width="5.8" height="1.9"/>
							<rect x="44.6" y="86.7" fill="#656A73" width="15.3" height="1.9"/>
							<g>
								<rect x="40.6" y="101" fill="#656A73" width="4.8" height="1.9"/>
							</g>
							<rect x="48" y="120.5" fill="#656A73" width="8.5" height="1.9"/>
							<rect x="74.2" y="110.8" fill="#656A73" width="6.3" height="1.9"/>
							<rect x="61.6" y="86.7" fill="#656A73" width="11" height="1.9"/>
							<rect x="74.8" y="86.7" fill="#656A73" width="6.7" height="1.9"/>
							<rect x="37.3" y="76.9" fill="#656A73" width="8.7" height="1.9"/>
							<rect x="37.3" y="81.8" fill="#656A73" width="12.4" height="1.9"/>
							<rect x="40.6" y="105.9" fill="#656A73" width="14.2" height="1.9"/>
							<rect x="40.6" y="110.8" fill="#656A73" width="13" height="1.9"/>
							<rect x="57.9" y="110.8" fill="#656A73" width="13.5" height="1.9"/>
							<rect x="57.9" y="120.5" fill="#656A73" width="13.5" height="1.9"/>
							<g>
								<rect x="33.6" y="101" fill="#656A73" width="5" height="1.9"/>
							</g>
							<rect x="40.6" y="120.5" fill="#656A73" width="5.8" height="1.9"/>
							<rect x="43.6" y="115.6" fill="#656A73" width="8.9" height="1.9"/>
							<g>
								<rect x="53.7" y="115.6" fill="#656A73" width="23" height="1.9"/>
							</g>
							<rect x="51" y="81.8" fill="#656A73" width="12.4" height="1.9"/>
							<g>
								<rect x="76.5" y="81.8" fill="#656A73" width="7.2" height="1.9"/>
							</g>
							<g>
								<rect x="64.3" y="81.8" fill="#656A73" width="7.7" height="1.9"/>
							</g>
							<rect x="48.9" y="76.9" fill="#656A73" width="13.4" height="1.9"/>
							<rect x="46.8" y="64.1" fill="#656A73" width="5.4" height="1.9"/>
						</g>
					</g>
				</g>
			</g>
			<g>
				<circle fill="#232E38" cx="33.8" cy="61.9" r="33"/>
				<g>
					<defs>
						<circle id="SVGID_3_" cx="33.8" cy="61.9" r="27.5"/>
					</defs>
					<use xlink:href="#SVGID_3_"  overflow="visible" fill="#353F49"/>
					<clipPath id="SVGID_4_">
						<use xlink:href="#SVGID_3_"  overflow="visible"/>
					</clipPath>
					<g clip-path="url(#SVGID_4_)">
						<rect x="8.4" y="34.1" fill="#F68360" width="4.3" height="1.8"/>
						<rect x="8.4" y="46.3" fill="#ABE0E5" width="4.3" height="1.8"/>
						<rect x="13.9" y="34.1" fill="#F68360" width="20.5" height="1.8"/>
						<rect x="13.9" y="46.3" fill="#ABE0E5" width="15.7" height="1.8"/>
						<rect x="12.8" y="38.7" fill="#FFFFFF" width="6.9" height="1.8"/>
						<rect x="12.8" y="60.3" fill="#FFFFFF" width="6.9" height="1.8"/>
						<rect x="21.3" y="60.3" fill="#FFFFFF" width="18" height="1.8"/>
						<rect x="16.7" y="69.4" fill="#F68360" width="5.7" height="1.8"/>
						<rect x="25.4" y="88" fill="#ABE0E5" width="10" height="1.8"/>
						<rect x="56.2" y="78.7" fill="#ABE0E5" width="7.4" height="1.8"/>
						<rect x="41.4" y="60.3" fill="#ABE0E5" width="13" height="1.8"/>
						<rect x="57" y="60.3" fill="#FFFFFF" width="7.9" height="1.8"/>
						<rect x="12.8" y="51" fill="#FFFFFF" width="10.3" height="1.8"/>
						<rect x="12.8" y="55.6" fill="#FFFFFF" width="14.6" height="1.8"/>
						<rect x="16.7" y="74.1" fill="#FFFFFF" width="16.7" height="1.8"/>
						<rect x="16.7" y="78.7" fill="#FFFFFF" width="15.4" height="1.8"/>
						<rect x="37" y="78.7" fill="#FFFFFF" width="16" height="1.8"/>
						<rect x="37" y="88" fill="#ABE0E5" width="16" height="1.8"/>
						<rect x="8.4" y="69.4" fill="#F68360" width="5.9" height="1.8"/>
						<rect x="16.7" y="88" fill="#FFFFFF" width="6.8" height="1.8"/>
						<rect x="20.2" y="83.4" fill="#ABE0E5" width="10.4" height="1.8"/>
						<rect x="32.1" y="83.4" fill="#FFFFFF" width="27.1" height="1.8"/>
						<rect x="28.9" y="55.6" fill="#FFFFFF" width="14.6" height="1.8"/>
						<rect x="59" y="55.6" fill="#F68360" width="8.5" height="1.8"/>
						<rect x="44.6" y="55.6" fill="#FFFFFF" width="9.1" height="1.8"/>
						<rect x="26.4" y="51" fill="#FFFFFF" width="15.8" height="1.8"/>
						<rect x="24" y="38.7" fill="#FFFFFF" width="6.3" height="1.8"/>
					</g>
				</g>
			</g>
		</g>
		<g>
			<circle fill="#FFFFFF" cx="219.9" cy="143.6" r="29.2"/>
			<path fill="#E6E5E5" d="M259.8,159.6c-0.2-0.4-0.5-0.7-0.8-1c-0.2-0.2-0.3-0.4-0.6-0.6c-0.2-0.2-0.3-0.4-0.6-0.6
				c-0.2-0.2-0.3-0.4-0.6-0.6c-0.2-0.2-0.3-0.4-0.6-0.6c-0.2-0.2-0.3-0.4-0.6-0.6c-0.2-0.2-0.3-0.4-0.6-0.6
				c-0.2-0.2-0.3-0.4-0.6-0.6c-0.2-0.2-0.3-0.4-0.6-0.6c-0.2-0.2-0.3-0.4-0.6-0.6c-0.2-0.2-0.3-0.4-0.6-0.6
				c-0.2-0.2-0.3-0.4-0.6-0.6c-0.2-0.2-0.3-0.4-0.6-0.6c-0.2-0.2-0.3-0.4-0.6-0.6c-0.2-0.2-0.3-0.4-0.6-0.6
				c-0.2-0.2-0.3-0.4-0.6-0.6c-0.2-0.2-0.3-0.4-0.6-0.6c-0.2-0.2-0.3-0.4-0.6-0.6c-0.2-0.2-0.3-0.4-0.5-0.5
				c-0.9-3.5-2.8-6.7-5.4-9.2c-0.2-0.2-9.4-9.4-9.6-9.6c-3.6-3.7-8.6-6.1-14.2-6.1c-10.9,0-19.7,8.8-19.7,19.7
				c0,5.6,2.3,10.6,6,14.2c0.2,0.2,9.4,9.4,9.6,9.6c3.6,3.7,8.6,6.1,14.2,6.1c8,0,14.8-4.7,17.9-11.5l2.6,0.7v0l5.7,1.6
				c0.8,0.2,1.6,0.1,2.4-0.3c0.8-0.4,1.3-1.1,1.5-1.9C260.3,161.2,260.2,160.3,259.8,159.6z"/>
			<path fill="#FFFFFF" d="M250,151.8c-0.2,0.8-0.7,1.5-1.5,1.9c-0.8,0.4-1.6,0.5-2.4,0.3l-9.1-2.5l1.7-6.1l9.1,2.5
				c0.8,0.2,1.5,0.7,1.9,1.5C250.1,150.2,250.2,151,250,151.8z"/>
			<path fill="#D9D8D7" d="M238.6,145.4l-1.7,6.1l3.4,0.9c0.8-1.9,1.4-3.9,1.7-6.1L238.6,145.4z"/>
			<circle fill="#FFFFFF" cx="219.9" cy="143.6" r="19.7"/>
			<circle fill="#F68360" cx="219.9" cy="143.6" r="16.5"/>
			<path fill="#ED6D47" d="M208,148.3c0-9.1,7.4-16.6,16.6-16.6c3.4,0,6.5,1,9.1,2.7c-3-4.5-8-7.5-13.8-7.5
				c-9.1,0-16.6,7.4-16.6,16.5c0,5.8,3,10.9,7.5,13.8C209,154.8,208,151.7,208,148.3z"/>
		</g>
		<g>
			<path fill="#FFFFFF" d="M219,241.9c0,6.2-5.1,11.2-11.2,11.2h-8.2c-6.2,0-11.2-5.1-11.2-11.2v-32.2c0-6.2,5.1-11.2,11.2-11.2h8.2
				c6.2,0,11.2,5.1,11.2,11.2V241.9z"/>
			<path fill="#E6E5E5" d="M213.8,200.3c0.1,0.6,0.2,1.3,0.2,2v24.4c0,4.9-1.9,9.7-5.6,13.4c-3.7,3.7-8.6,5.6-13.4,5.6h-0.4
				c-2.2,0-4.3-0.7-6.1-1.8c0.9,5.3,5.5,9.3,11.1,9.3h8.2c6.2,0,11.2-5.1,11.2-11.2v-32.2C219,205.8,216.9,202.3,213.8,200.3z"/>
			<path fill="#232E38" d="M206.2,210.3c0,1.4-1.1,2.5-2.6,2.5c-1.4,0-2.5-1.1-2.5-2.5c0-1.4,1.1-2.6,2.5-2.6
				C205.1,207.7,206.2,208.8,206.2,210.3z"/>
		</g>
		<g>
			<rect x="44.4" y="216.2" fill="#F68360" width="54.9" height="32.9"/>
			<g>
				<path fill="#FFFFFF" d="M55.4,237.1v-8.8h1.8v3.5h3.5v-3.5h1.8v8.8h-1.8v-3.9h-3.5v3.9H55.4z"/>
				<path fill="#FFFFFF" d="M66.3,237.1v-7.3h-2.6v-1.5h7v1.5H68v7.3H66.3z"/>
				<path fill="#FFFFFF" d="M71.8,237.1v-8.8h2.7l1.6,6l1.6-6h2.7v8.8h-1.7v-6.9l-1.7,6.9h-1.7l-1.7-6.9v6.9H71.8z"/>
				<path fill="#FFFFFF" d="M82.1,237.1v-8.7h1.8v7.2h4.4v1.5H82.1z"/>
			</g>
		</g>
		<g>
			<rect x="0" y="161.5" fill="#91D3D9" width="33.3" height="33.3"/>
			<g>
				<path fill="#FFFFFF" d="M7.2,181.6v-6.9h2.3c0.9,0,1.4,0,1.7,0.1c0.4,0.1,0.7,0.3,1,0.7c0.3,0.3,0.4,0.8,0.4,1.4
					c0,0.4-0.1,0.8-0.2,1.1c-0.2,0.3-0.4,0.5-0.6,0.7c-0.2,0.2-0.5,0.3-0.7,0.3c-0.3,0.1-0.8,0.1-1.5,0.1H8.6v2.6H7.2z M8.6,175.9v2
					h0.8c0.6,0,0.9,0,1.1-0.1c0.2-0.1,0.3-0.2,0.4-0.3c0.1-0.2,0.2-0.3,0.2-0.5c0-0.3-0.1-0.5-0.2-0.6c-0.1-0.2-0.3-0.3-0.6-0.3
					c-0.2,0-0.5,0-1,0H8.6z"/>
				<path fill="#FFFFFF" d="M13.7,181.6v-6.9h1.4v2.7h2.7v-2.7h1.4v6.9h-1.4v-3h-2.7v3H13.7z"/>
				<path fill="#FFFFFF" d="M20.7,181.6v-6.9H23c0.9,0,1.4,0,1.7,0.1c0.4,0.1,0.7,0.3,1,0.7c0.3,0.3,0.4,0.8,0.4,1.4
					c0,0.4-0.1,0.8-0.2,1.1c-0.2,0.3-0.4,0.5-0.6,0.7c-0.2,0.2-0.5,0.3-0.7,0.3c-0.3,0.1-0.8,0.1-1.5,0.1h-0.9v2.6H20.7z
					 M22.1,175.9v2h0.8c0.6,0,0.9,0,1.1-0.1c0.2-0.1,0.3-0.2,0.4-0.3c0.1-0.2,0.2-0.3,0.2-0.5c0-0.3-0.1-0.5-0.2-0.6
					c-0.1-0.2-0.3-0.3-0.6-0.3c-0.2,0-0.5,0-1,0H22.1z"/>
			</g>
		</g>
		<g>
			<circle fill="#353F49" cx="249" cy="203.8" r="22"/>
		</g>
		<g>
			<rect x="138.4" y="96.6" fill="#FFFFFF" width="55.5" height="25"/>
		</g>
	</g>
</g>
<text transform="matrix(1 0 0 1 144.7582 116.647)" fill="#353F49" font-family="'FSSinclair-Bold'" font-size="24">PHP</text>
<g>
	<g>
		<g>
			<path fill="#F2F2F2" d="M243.4,205.2l14.2-3.4c-0.8-1.1-4.3-6.2-4.7-6.6c-0.4-0.5,0-0.8,0.6-0.9c0.6-0.1,6-1,6.5-1.1
				c0.4-0.1,0.7-0.2,1.3,0.3c-0.5-1.2-1.7-2-3-2h-18.2c-1.6,0-2.9,1.1-3.2,2.7L243.4,205.2z"/>
			<path fill="#F2F2F2" d="M260.3,194.5c-0.2,0-4.9,0.9-5.2,0.9c-0.3,0-0.2,0.2-0.1,0.4l4.1,5.7c0,0,1.2-0.3,2.5-0.6v-5.3
				c-0.3-0.4-0.6-0.8-0.6-0.8C260.7,194.4,260.5,194.4,260.3,194.5z"/>
			<path fill="#F2F2F2" d="M261.6,207.1c-1.2-1.7-2.5-3.4-2.6-3.6c-0.2-0.2-0.3-0.3-0.7-0.2l-13.8,3.6c0,0,4.2,7.3,4.6,7.8
				c0.3,0.5,0.5,0.4,0.8,0.3c0.2-0.1,8.1-2.7,11.8-4V207.1z"/>
			<path fill="#F2F2F2" d="M261.6,204.7v-2.1c-0.5,0.1-1,0.3-1.3,0.3C260.7,203.5,261.1,204.1,261.6,204.7z"/>
			<path fill="#F2F2F2" d="M253.1,216.3h5.2c1.7,0,3.1-1.3,3.3-3C258.9,214.2,255.5,215.4,253.1,216.3z"/>
			<path fill="#F2F2F2" d="M242.5,207.4c-1.5,0.4-3.8,1-5.7,1.5v4.1c0,1.8,1.5,3.3,3.3,3.3h7.4C246.5,214.7,243.9,209.9,242.5,207.4
				z"/>
			<path fill="#F2F2F2" d="M241.3,205.3c-0.1-0.1-2.2-3.9-4.6-7.9v9.4c2.2-0.5,4.4-1,4.5-1.1C241.6,205.7,241.5,205.6,241.3,205.3z"
				/>
		</g>
		<path opacity="0.5" fill="#F2F2F2" d="M241.3,205.3c0,0.1,0,0.1-0.2,0.2c0,0-0.5,0.2-1.1,0.5l1.2,2.2c0.5-0.2,0.9-0.4,1.3-0.6"/>
		<g opacity="0.5">
			<path fill="#F2F2F2" d="M258.5,203.3c0.1,0,0.2,0.1,0.2,0.2c0.1,0.1,0.4,0.4,0.8,0.9l1.7-0.4c-0.3-0.4-0.8-0.8-1-1.1"/>
		</g>
	</g>
	<polygon fill="#F2F2F2" points="260.2,202.8 261.6,202.4 261.6,203.1 260.6,203.4 	"/>
</g>
</svg>
