<?xml version="1.0" encoding="utf-8"?>
<!-- Generator: Adobe Illustrator 18.1.0, SVG Export Plug-In . SVG Version: 6.00 Build 0)  -->
<!DOCTYPE svg PUBLIC "-//W3C//DTD SVG 1.1//EN" "http://www.w3.org/Graphics/SVG/1.1/DTD/svg11.dtd">
<svg version="1.1" id="Layer_1" xmlns="http://www.w3.org/2000/svg" xmlns:xlink="http://www.w3.org/1999/xlink" x="0px" y="0px"
	 viewBox="0 0 260 260" enable-background="new 0 0 260 260" xml:space="preserve">
<g>
	<circle fill="#F2F2F2" cx="130" cy="130" r="130"/>
	<g>
		<g>
			<polygon fill="#F2F2F2" points="43.7,48.4 18.6,40.8 43.7,33.2 			"/>
			<polygon fill="#CCCBCA" points="18.6,40.8 43.7,48.4 43.7,43.6 			"/>
			<rect x="43.7" y="33.2" fill="#474F59" width="190.3" height="15.3"/>
			<rect x="43.7" y="43.6" fill="#232E38" width="190.3" height="4.8"/>
			<polygon fill="#353F49" points="28.5,43.8 18.6,40.8 28.5,37.8 			"/>
			<polygon fill="#232E38" points="28.5,43.8 18.6,40.8 28.5,41.9 			"/>
			<rect x="234" y="33.2" fill="#F2F2F2" width="8.9" height="15.3"/>
			<rect x="234" y="43.6" fill="#CCCBCA" width="8.9" height="4.8"/>
			<path fill="#F68360" d="M252.4,48.4c2,0,3.9-0.7,5.4-2.2c1.5-1.5,2.2-3.4,2.2-5.4l0,0c0-2-0.7-3.9-2.2-5.4
				c-1.5-1.5-3.4-2.2-5.4-2.2h-9.5v15.3H252.4z"/>
			<path fill="#ED6D47" d="M257.8,35.4c-0.9-0.9-1.9-1.4-3-1.8c0.3,0.8,0.4,1.6,0.4,2.4c0,2-0.7,3.9-2.2,5.4
				c-1.5,1.5-3.4,2.2-5.4,2.2h-4.7v4.8h9.5c2,0,3.9-0.7,5.4-2.2c1.5-1.5,2.2-3.4,2.2-5.4C260,38.9,259.3,36.9,257.8,35.4z"/>
		</g>
		<g>
			<rect x="187.9" y="0" fill="#91D3D9" width="30.2" height="208.8"/>
			<g>
				<g>
					<rect x="187.9" y="201.1" fill="#FFFFFF" width="8" height="1.5"/>
					<rect x="187.9" y="187.2" fill="#FFFFFF" width="8" height="1.5"/>
					<rect x="187.9" y="173.3" fill="#FFFFFF" width="8" height="1.5"/>
					<rect x="187.9" y="159.3" fill="#FFFFFF" width="8" height="1.5"/>
					<rect x="187.9" y="145.4" fill="#FFFFFF" width="8" height="1.5"/>
					<rect x="187.9" y="131.5" fill="#FFFFFF" width="8" height="1.5"/>
					<rect x="187.9" y="117.6" fill="#FFFFFF" width="8" height="1.5"/>
					<rect x="187.9" y="103.7" fill="#FFFFFF" width="8" height="1.5"/>
					<rect x="187.9" y="89.7" fill="#FFFFFF" width="8" height="1.5"/>
					<rect x="187.9" y="75.8" fill="#FFFFFF" width="8" height="1.5"/>
					<rect x="187.9" y="61.9" fill="#FFFFFF" width="8" height="1.5"/>
					<rect x="187.9" y="41" fill="#FFFFFF" width="4" height="1.5"/>
					<rect x="187.9" y="27.1" fill="#FFFFFF" width="4.2" height="1.5"/>
					<rect x="187.9" y="13.2" fill="#FFFFFF" width="4.2" height="1.5"/>
				</g>
				<g>
					<rect x="187.9" y="194.1" fill="#FFFFFF" width="4.2" height="1.5"/>
					<rect x="187.9" y="180.2" fill="#FFFFFF" width="4.2" height="1.5"/>
					<rect x="187.9" y="166.3" fill="#FFFFFF" width="4.2" height="1.5"/>
					<rect x="187.9" y="152.4" fill="#FFFFFF" width="4.2" height="1.5"/>
					<rect x="187.9" y="138.5" fill="#FFFFFF" width="4.2" height="1.5"/>
					<rect x="187.9" y="124.5" fill="#FFFFFF" width="4.2" height="1.5"/>
					<rect x="187.9" y="110.6" fill="#FFFFFF" width="4.2" height="1.5"/>
					<rect x="187.9" y="96.7" fill="#FFFFFF" width="4.2" height="1.5"/>
					<rect x="187.9" y="82.8" fill="#FFFFFF" width="4.2" height="1.5"/>
					<rect x="187.9" y="68.9" fill="#FFFFFF" width="4.2" height="1.5"/>
					<rect x="187.9" y="54.9" fill="#FFFFFF" width="4.2" height="1.5"/>
					<rect x="187.9" y="48" fill="#FFFFFF" width="8" height="1.5"/>
					<rect x="187.9" y="34.1" fill="#FFFFFF" width="8" height="1.5"/>
					<rect x="187.9" y="20.1" fill="#FFFFFF" width="8" height="1.5"/>
					<rect x="187.9" y="6.2" fill="#FFFFFF" width="8" height="1.5"/>
				</g>
			</g>
		</g>
		<g>
			<g>
				<g>
					<polygon fill="#FF9978" points="145.6,139.8 141,139.8 139.6,146.6 147,146.6 					"/>
					<polygon fill="#FF9978" points="129.9,142.7 125.9,145.1 128.1,151.6 134.5,147.9 					"/>
					<polygon fill="#FF9978" points="117.8,153.2 115.5,157.2 120.7,161.8 124.4,155.4 					"/>
					<polygon fill="#FF9978" points="112.5,168.2 112.5,172.9 119.3,174.3 119.3,166.9 					"/>
					<polygon fill="#FF9978" points="115.5,184 117.8,188 124.4,185.8 120.7,179.4 					"/>
					<polygon fill="#FF9978" points="125.9,196.1 129.9,198.4 134.5,193.2 128.1,189.5 					"/>
					<polygon fill="#FF9978" points="141,201.4 145.6,201.4 147,194.6 139.6,194.6 					"/>
					<polygon fill="#FF9978" points="156.7,198.4 160.7,196.1 158.5,189.5 152.1,193.2 					"/>
					<polygon fill="#FF9978" points="168.8,188 171.1,184 165.9,179.4 162.2,185.8 					"/>
					<polygon fill="#FF9978" points="174.1,172.9 174.1,168.2 167.3,166.9 167.3,174.3 					"/>
					<polygon fill="#FF9978" points="171.1,157.2 168.8,153.2 162.2,155.4 165.9,161.8 					"/>
					<polygon fill="#FF9978" points="160.7,145.1 156.7,142.7 152.1,147.9 158.5,151.6 					"/>
				</g>
			</g>
			<path fill="#F68360" d="M143.3,146.3c-13.4,0-24.3,10.9-24.3,24.3c0,13.4,10.9,24.3,24.3,24.3c13.4,0,24.3-10.9,24.3-24.3
				C167.6,157.2,156.7,146.3,143.3,146.3z M143.3,177.3c-3.7,0-6.7-3-6.7-6.7c0-3.7,3-6.7,6.7-6.7c3.7,0,6.7,3,6.7,6.7
				C150,174.3,147,177.3,143.3,177.3z"/>
			<path fill="#232E38" d="M143.3,158.9c-6.4,0-11.7,5.2-11.7,11.7c0,6.4,5.2,11.7,11.7,11.7c6.4,0,11.7-5.2,11.7-11.7
				C154.9,164.1,149.7,158.9,143.3,158.9z M143.3,176.4c-3.2,0-5.8-2.6-5.8-5.8c0-3.2,2.6-5.8,5.8-5.8c3.2,0,5.8,2.6,5.8,5.8
				C149.1,173.8,146.5,176.4,143.3,176.4z"/>
		</g>
		<g>
			<defs>
				<circle id="SVGID_1_" cx="130" cy="130" r="130"/>
			</defs>
			<clipPath id="SVGID_2_">
				<use xlink:href="#SVGID_1_"  overflow="visible"/>
			</clipPath>
			<g clip-path="url(#SVGID_2_)">
				<rect x="150.3" y="89.3" fill="#353F49" width="109.6" height="141.5"/>
				<g>
					<rect x="162.2" y="101.3" fill="#ABE0E5" width="22.4" height="2.2"/>
					<rect x="162.2" y="118.4" fill="#ABE0E5" width="6.3" height="2.2"/>
					<rect x="188.5" y="101.3" fill="#F68360" width="8.9" height="2.2"/>
					<rect x="170.1" y="118.4" fill="#656A73" width="22.8" height="2.2"/>
					<rect x="168.5" y="107.2" fill="#ABE0E5" width="10" height="2.2"/>
					<rect x="168.5" y="135.9" fill="#ABE0E5" width="10" height="2.2"/>
					<rect x="162.2" y="170.4" fill="#E6E5E5" width="16.4" height="2.2"/>
					<rect x="168.5" y="141.7" fill="#ABE0E5" width="4.1" height="2.2"/>
					<rect x="180.9" y="135.9" fill="#ABE0E5" width="26.2" height="2.2"/>
					<rect x="179.3" y="153.4" fill="#ABE0E5" width="25.5" height="2.2"/>
					<rect x="173.9" y="216.6" fill="#ABE0E5" width="9.1" height="2.2"/>
					<rect x="207.8" y="176.2" fill="#E6E5E5" width="9.4" height="2.2"/>
					<rect x="181.2" y="204.9" fill="#E6E5E5" width="17.7" height="2.2"/>
					<rect x="187" y="216.6" fill="#E6E5E5" width="20.8" height="2.2"/>
					<rect x="224.4" y="187.9" fill="#F68360" width="7.6" height="2.2"/>
					<rect x="209.3" y="153.4" fill="#F68360" width="18.9" height="2.2"/>
					<rect x="210.2" y="135.9" fill="#656A73" width="18.9" height="2.2"/>
					<rect x="232.9" y="135.9" fill="#656A73" width="11.6" height="2.2"/>
					<rect x="168.5" y="124.2" fill="#656A73" width="15" height="2.2"/>
					<rect x="168.5" y="130" fill="#656A73" width="21.3" height="2.2"/>
					<rect x="174.2" y="141.7" fill="#656A73" width="24.4" height="2.2"/>
					<rect x="168.5" y="182.1" fill="#E6E5E5" width="24.4" height="2.2"/>
					<rect x="168.5" y="187.9" fill="#656A73" width="26.8" height="2.2"/>
					<rect x="191.3" y="210.8" fill="#F68360" width="47.4" height="2.2"/>
					<rect x="214.1" y="216.6" fill="#656A73" width="10.4" height="2.2"/>
					<rect x="198.1" y="187.9" fill="#656A73" width="23.2" height="2.2"/>
					<rect x="205.7" y="204.9" fill="#656A73" width="23.2" height="2.2"/>
					<rect x="174.2" y="147.5" fill="#ABE0E5" width="7.9" height="2.2"/>
					<rect x="174.2" y="159.2" fill="#ABE0E5" width="8.6" height="2.2"/>
					<rect x="168.5" y="176.2" fill="#ABE0E5" width="36.2" height="2.2"/>
					<rect x="162.2" y="204.9" fill="#ABE0E5" width="16.2" height="2.2"/>
					<rect x="168.5" y="210.8" fill="#ABE0E5" width="18.5" height="2.2"/>
					<rect x="184.6" y="147.5" fill="#E6E5E5" width="47.6" height="2.2"/>
					<rect x="173.6" y="193.7" fill="#656A73" width="15.2" height="2.2"/>
					<rect x="194" y="193.7" fill="#E6E5E5" width="42.1" height="2.2"/>
					<rect x="203.6" y="141.7" fill="#F68360" width="16" height="2.2"/>
					<rect x="192" y="130" fill="#656A73" width="21.3" height="2.2"/>
					<rect x="214.8" y="130" fill="#F68360" width="17.5" height="2.2"/>
					<rect x="238.7" y="130" fill="#E6E5E5" width="9.5" height="2.2"/>
					<rect x="188.4" y="124.2" fill="#E6E5E5" width="23" height="2.2"/>
					<rect x="182.3" y="107.2" fill="#E6E5E5" width="22.8" height="2.2"/>
				</g>
				<rect x="150.3" y="75.9" fill="#232E38" width="109.6" height="13.4"/>
			</g>
		</g>
		<g>
			<path fill="#232E38" d="M18.6,112.3c0-2.5,2.1-4.6,4.6-4.6h75.6c2.5,0,4.6,2.1,4.6,4.6v113.9c0,2.5-2.1,4.6-4.6,4.6H23.3
				c-2.5,0-4.6-2.1-4.6-4.6V112.3z"/>
			<path fill="#474F59" d="M56.4,225.7c-1.1,0-2.1-0.9-2.1-2.1v-0.5c0-1.1,0.9-2.1,2.1-2.1h9.4c1.1,0,2.1,0.9,2.1,2.1v0.5
				c0,1.1-0.9,2.1-2.1,2.1H56.4z"/>
			<path fill="#474F59" d="M61.1,115.8c-1.2,0-2.1-0.9-2.1-2.1c0-1.2,0.9-2.1,2.1-2.1c1.2,0,2.1,1,2.1,2.1
				C63.2,114.9,62.2,115.8,61.1,115.8z"/>
			<path fill="#D9D8D7" d="M61.1,114.6c-0.5,0-0.9-0.4-0.9-0.9c0-0.5,0.4-0.9,0.9-0.9c0.5,0,0.9,0.4,0.9,0.9
				C62,114.2,61.6,114.6,61.1,114.6z"/>
			<rect x="23.5" y="119.7" fill="#FFFFFF" width="75.2" height="96.2"/>
			<g>
				<rect x="26.4" y="136.1" fill="#F68360" width="15" height="15"/>
				<rect x="44.5" y="136.1" fill="#ABE0E5" width="15" height="15"/>
				<rect x="62.5" y="136.1" fill="#FFD680" width="15" height="15"/>
				<rect x="80.5" y="136.1" fill="#474F59" width="15" height="15"/>
				<rect x="26.4" y="154.1" fill="#FFD680" width="15" height="15"/>
				<rect x="44.5" y="154.1" fill="#474F59" width="15" height="15"/>
				<rect x="62.5" y="154.1" fill="#ABE0E5" width="15" height="15"/>
				<rect x="80.5" y="154.1" fill="#F68360" width="15" height="15"/>
				<rect x="44.5" y="172.1" fill="#F68360" width="15" height="15"/>
				<rect x="62.5" y="172.1" fill="#CCCBCA" width="15" height="15"/>
				<rect x="80.5" y="172.1" fill="#FFD680" width="15" height="15"/>
				<rect x="26.4" y="197.8" fill="#F68360" width="15" height="15"/>
				<rect x="44.5" y="197.8" fill="#CCCBCA" width="15" height="15"/>
			</g>
			<rect x="23.5" y="119.7" fill="#E6E5E5" width="75.2" height="13.2"/>
		</g>
		<g>
			<rect x="72.6" y="222.3" fill="#C4EDF1" width="57.4" height="37.7"/>
			<rect x="72.6" y="215.9" fill="#F68360" width="57.4" height="6.4"/>
			<g>
				<g>
					<rect x="92.1" y="247.8" fill-rule="evenodd" clip-rule="evenodd" fill="#F68360" width="18.3" height="6.4"/>
					<rect x="96.3" y="250.2" fill="#FFFFFF" width="9.9" height="1.7"/>
				</g>
				<g>
					<g>
						<rect x="112.9" y="228.1" fill-rule="evenodd" clip-rule="evenodd" fill="#91D3D9" width="6.4" height="6.4"/>
						<g>
							<path fill="#FFFFFF" d="M117.1,230.7c0,0.6-0.4,1.1-1,1.1c-0.5,0-1-0.5-1-1.1c0-0.6,0.4-1.1,1-1.1
								C116.7,229.6,117.1,230.1,117.1,230.7z"/>
							<path fill="#FFFFFF" d="M116.6,232.1c-0.2,0.1-0.3,0.1-0.5,0.1c-0.2,0-0.4,0-0.5-0.1c-0.7,0.1-1.2,0.5-1.3,0.9h3.5
								C117.8,232.6,117.3,232.2,116.6,232.1z"/>
						</g>
					</g>
					<g>
						<rect x="83.2" y="228.1" fill-rule="evenodd" clip-rule="evenodd" fill="#FFFFFF" width="29.7" height="6.4"/>
						<rect x="89" y="230.5" fill="#CCCBCA" width="18.1" height="1.6"/>
					</g>
				</g>
				<g>
					<g>
						<rect x="112.9" y="236.8" fill-rule="evenodd" clip-rule="evenodd" fill="#91D3D9" width="6.4" height="6.4"/>
						<path fill="#FFFFFF" d="M117,239.7v-0.5c0-0.5-0.4-0.9-0.9-0.9c-0.5,0-0.9,0.4-0.9,0.9v0.5h-0.3v2h2.4v-2H117z M116.7,239.7
							h-1.2v-0.5c0-0.3,0.3-0.6,0.6-0.6c0.3,0,0.6,0.3,0.6,0.6V239.7z"/>
					</g>
					<g>
						<rect x="83.2" y="236.8" fill-rule="evenodd" clip-rule="evenodd" fill="#FFFFFF" width="29.7" height="6.4"/>
						<g>
							<g>
								<circle fill="#474F59" cx="89.8" cy="240" r="0.8"/>
								<path fill="#474F59" d="M93.1,239.2c-0.5,0-0.8,0.4-0.8,0.8c0,0.5,0.4,0.8,0.8,0.8c0.5,0,0.8-0.4,0.8-0.8
									C94,239.6,93.6,239.2,93.1,239.2z"/>
								<circle fill="#474F59" cx="96.4" cy="240" r="0.8"/>
								<circle fill="#474F59" cx="99.7" cy="240" r="0.8"/>
								<circle fill="#474F59" cx="103" cy="240" r="0.8"/>
								<circle fill="#474F59" cx="106.3" cy="240" r="0.8"/>
							</g>
						</g>
					</g>
				</g>
			</g>
		</g>
		<g>
			<g>
				<path fill="#474F59" d="M29.6,114.8c-0.2,0-0.4-0.1-0.6-0.3c-0.2-0.3-0.2-0.7,0.1-1l29.9-23.4c0.6-0.5,1.3-0.7,2-0.8
					c0.7-0.1,1.5,0.1,2.1,0.5l28.1,15.9c0.3,0.2,0.5,0.6,0.3,1c-0.2,0.3-0.6,0.5-1,0.3L62.5,91.1c-0.4-0.2-0.8-0.3-1.3-0.3
					c-0.5,0-0.9,0.2-1.2,0.5L30,114.7C29.9,114.8,29.7,114.8,29.6,114.8z"/>
				<g>
					
						<rect x="23.5" y="110.2" transform="matrix(0.9921 -0.1252 0.1252 0.9921 -14.1986 7.7008)" fill="#F68360" width="61.4" height="13.2"/>
					
						<rect x="50.2" y="88.1" transform="matrix(0.1252 0.9921 -0.9921 0.1252 163.3223 48.4593)" fill="#FFFFFF" width="8" height="57.6"/>
					
						<rect x="28.3" y="118.2" transform="matrix(0.9921 -0.1252 0.1252 0.9921 -14.6103 5.5345)" fill="#CCCBCA" width="16.9" height="1.7"/>
					
						<rect x="84.6" y="105.5" transform="matrix(0.9921 -0.1252 0.1252 0.9921 -13.3149 12.3347)" fill="#F68360" width="13.9" height="13.2"/>
					<path fill="#FFFFFF" d="M95.1,114.2l-1.6-1.2c0,0-0.1,0-0.1,0c-0.1,0-0.1,0-0.1,0.1l-0.1,0.1l-0.5-0.4c0.3-0.5,0.4-1.1,0.4-1.7
						c-0.2-1.4-1.5-2.4-2.9-2.2c-1.4,0.2-2.4,1.5-2.2,2.9c0.2,1.4,1.5,2.4,2.9,2.2c0.6-0.1,1.1-0.4,1.5-0.8l0.5,0.4l-0.1,0.1
						c0,0,0,0.1,0,0.1c0,0.1,0,0.1,0.1,0.1l1.6,1.2c0.1,0.1,0.3,0.1,0.4,0.1c0.2,0,0.3-0.1,0.4-0.2c0.1-0.1,0.1-0.3,0.1-0.4
						C95.3,114.4,95.2,114.3,95.1,114.2z M90.8,113.5c-1.2,0.1-2.2-0.7-2.4-1.9c-0.1-1.2,0.7-2.2,1.9-2.4c1.2-0.1,2.2,0.7,2.4,1.9
						C92.8,112.3,91.9,113.3,90.8,113.5z"/>
				</g>
			</g>
			<g>
				<g>
					<path fill="#FFB959" d="M61.1,93.3c-4.8,0-8.8-3.9-8.8-8.8c0-0.7,0.6-1.2,1.2-1.2c0.7,0,1.2,0.6,1.2,1.2c0,3.4,2.8,6.2,6.2,6.2
						c3.4,0,6.2-2.8,6.2-6.2c0-3.4-2.8-6.3-6.2-6.3c-0.7,0-1.2-0.6-1.2-1.2v-3.5c0-0.7,0.6-1.2,1.2-1.2c0.7,0,1.2,0.6,1.2,1.2v2.4
						c4.2,0.6,7.5,4.3,7.5,8.7C69.8,89.4,65.9,93.3,61.1,93.3z"/>
					<path fill="#232E38" d="M61.1,74.8c-1.9,0-3.4-1.5-3.4-3.4c0-1.9,1.5-3.4,3.4-3.4s3.4,1.5,3.4,3.4
						C64.5,73.2,62.9,74.8,61.1,74.8z M61.1,70.5c-0.5,0-0.9,0.4-0.9,0.9c0,0.5,0.4,0.9,0.9,0.9c0.5,0,0.9-0.4,0.9-0.9
						C62,70.9,61.6,70.5,61.1,70.5z"/>
				</g>
				<path fill="#656A73" d="M61.1,72.1c-0.4,0-0.7-0.3-0.7-0.7V33.2c0-0.4,0.3-0.7,0.7-0.7c0.4,0,0.7,0.3,0.7,0.7v38.2
					C61.8,71.7,61.5,72.1,61.1,72.1z"/>
			</g>
			<path fill="#474F59" d="M61.1,90.8c-0.4,0-0.8,0.2-1.1,0.5L58,92.8c-0.5-0.2-1-0.4-1.4-0.7l2.2-1.7
				C59.5,90.7,60.3,90.8,61.1,90.8z"/>
		</g>
		<g>
			<g>
				<rect x="191.1" y="187.9" fill="#F68360" width="68.7" height="42.9"/>
				<g>
					<path fill="#FFFFFF" d="M225.5,219.4c-5.5,0-10-4.5-10-10c0-5.5,4.5-10,10-10c5.5,0,10,4.5,10,10
						C235.5,214.9,231,219.4,225.5,219.4z M225.5,200c-5.2,0-9.4,4.2-9.4,9.4c0,5.2,4.2,9.4,9.4,9.4c5.2,0,9.4-4.2,9.4-9.4
						C234.8,204.2,230.6,200,225.5,200z"/>
					<polygon fill="#FFFFFF" points="223.6,206.1 229.2,209.4 223.6,212.6 					"/>
				</g>
			</g>
			<g>
				<rect x="191.1" y="230.8" fill="#353F49" width="68.7" height="12.9"/>
				<g>
					<g>
						<g>
							<g>
								<path fill="#CCCBCA" d="M242.1,237.3c0-0.4,0.2-0.9,0.7-0.9c0.5,0,0.7,0.5,0.7,0.9c0,0.4-0.2,0.9-0.7,0.9
									C242.3,238.2,242.1,237.7,242.1,237.3z M243.2,237.3c0-0.4-0.1-0.7-0.5-0.7c-0.3,0-0.5,0.4-0.5,0.7c0,0.4,0.1,0.7,0.5,0.7
									C243.1,238,243.2,237.6,243.2,237.3z"/>
								<path fill="#CCCBCA" d="M243.7,237.9l0.1-0.1c0.1,0.1,0.3,0.2,0.5,0.2c0.3,0,0.4-0.1,0.4-0.3c0-0.2-0.2-0.3-0.4-0.3
									c-0.1,0-0.2,0-0.2,0v-0.2c0,0,0.1,0,0.2,0c0.2,0,0.4-0.1,0.4-0.3c0-0.2-0.2-0.3-0.4-0.3c-0.2,0-0.3,0.1-0.5,0.2l-0.1-0.1
									c0.1-0.2,0.3-0.3,0.6-0.3c0.3,0,0.6,0.2,0.6,0.5c0,0.3-0.2,0.4-0.4,0.4c0.2,0,0.4,0.1,0.4,0.4c0,0.3-0.2,0.5-0.6,0.5
									C244,238.2,243.8,238,243.7,237.9z"/>
								<path fill="#CCCBCA" d="M245.2,237c0-0.1,0.1-0.1,0.1-0.1c0.1,0,0.1,0.1,0.1,0.1c0,0.1-0.1,0.1-0.1,0.1
									C245.3,237.1,245.2,237.1,245.2,237z M245.2,238c0-0.1,0.1-0.1,0.1-0.1c0.1,0,0.1,0.1,0.1,0.1c0,0.1-0.1,0.1-0.1,0.1
									C245.3,238.2,245.2,238.1,245.2,238z"/>
								<path fill="#CCCBCA" d="M246.6,238.1v-0.4h-0.8v-0.2l0.8-1.1h0.3v1.1h0.2v0.2h-0.2v0.4H246.6z M246.6,236.6l-0.6,0.9h0.6
									V236.6z"/>
								<path fill="#CCCBCA" d="M247.3,237.7c0-0.2,0.2-0.4,0.4-0.5c-0.2-0.1-0.4-0.2-0.4-0.4c0-0.3,0.3-0.5,0.6-0.5
									c0.3,0,0.6,0.1,0.6,0.5c0,0.2-0.2,0.4-0.4,0.4c0.2,0.1,0.4,0.2,0.4,0.5c0,0.3-0.3,0.5-0.6,0.5
									C247.6,238.2,247.3,238,247.3,237.7z M248.3,237.7c0-0.2-0.3-0.3-0.4-0.3c-0.1,0-0.4,0.1-0.4,0.3c0,0.2,0.2,0.3,0.4,0.3
									C248.1,238,248.3,237.9,248.3,237.7z M248.3,236.8c0-0.2-0.2-0.3-0.4-0.3c-0.2,0-0.4,0.1-0.4,0.3c0,0.2,0.3,0.3,0.4,0.3
									C248,237.1,248.3,237.1,248.3,236.8z"/>
							</g>
							<g>
								<path fill="#CCCBCA" d="M202.4,237.3c0-0.4,0.2-0.9,0.7-0.9c0.5,0,0.7,0.5,0.7,0.9c0,0.4-0.2,0.9-0.7,0.9
									C202.6,238.2,202.4,237.7,202.4,237.3z M203.6,237.3c0-0.4-0.1-0.7-0.5-0.7c-0.3,0-0.5,0.4-0.5,0.7c0,0.4,0.1,0.7,0.5,0.7
									C203.5,238,203.6,237.6,203.6,237.3z"/>
								<path fill="#CCCBCA" d="M204.4,238.1v-1.5l-0.3,0.3l-0.1-0.1l0.4-0.5h0.2v1.8H204.4z"/>
								<path fill="#CCCBCA" d="M205,237c0-0.1,0.1-0.1,0.1-0.1c0.1,0,0.1,0.1,0.1,0.1c0,0.1-0.1,0.1-0.1,0.1
									C205.1,237.1,205,237.1,205,237z M205,238c0-0.1,0.1-0.1,0.1-0.1c0.1,0,0.1,0.1,0.1,0.1c0,0.1-0.1,0.1-0.1,0.1
									C205.1,238.2,205,238.1,205,238z"/>
								<path fill="#CCCBCA" d="M205.9,238.1v-1.5l-0.3,0.3l-0.1-0.1l0.4-0.5h0.2v1.8H205.9z"/>
								<path fill="#CCCBCA" d="M206.6,238.1l0.7-1.6h-1v-0.2h1.2v0.1l-0.7,1.6H206.6z"/>
							</g>
						</g>
					</g>
					<g>
						<g>
							<path fill="#CCCBCA" d="M240,236.7h-18.6v1.1H240c0.3,0,0.6-0.3,0.6-0.6C240.6,237,240.3,236.7,240,236.7z"/>
							<path fill="#91D3D9" d="M222,237.3c0,0.3-0.3,0.6-0.6,0.6h-10.5c-0.3,0-0.6-0.3-0.6-0.6l0,0c0-0.3,0.3-0.6,0.6-0.6h10.5
								C221.8,236.7,222,237,222,237.3L222,237.3z"/>
						</g>
						<circle fill="#FFFFFF" cx="221.5" cy="237.3" r="1.6"/>
					</g>
					<g>
						<polygon fill="#CCCBCA" points="194.9,235.5 198,237.3 194.9,239 						"/>
						<g>
							<g>
								<rect x="253" y="236.2" fill="#CCCBCA" width="1.4" height="2.1"/>
								<polygon fill="#CCCBCA" points="256,239.5 254.4,238.3 254.4,236.2 256,235 								"/>
							</g>
						</g>
					</g>
				</g>
			</g>
		</g>
		<g>
			<rect x="134.6" y="100.3" fill="#FFD680" width="62.6" height="13.4"/>
			<rect x="121.2" y="100.3" fill="#FFB959" width="13.4" height="13.4"/>
			<rect x="197.2" y="100.3" fill="#FFB959" width="13.4" height="13.4"/>
			<rect x="140.2" y="106.4" fill="#FFFFFF" width="51.4" height="1.3"/>
			<polygon fill="#FFFFFF" points="125.5,104.4 130.2,107 125.5,109.7 			"/>
			<g>
				<g>
					<rect x="201.6" y="105.5" fill="#FFFFFF" width="2.1" height="3.1"/>
					<polygon fill="#FFFFFF" points="206.1,110.4 203.7,108.6 203.7,105.5 206.1,103.7 					"/>
				</g>
			</g>
			<circle fill="#FFB959" cx="153.2" cy="107" r="2.7"/>
		</g>
	</g>
</g>
</svg>
