<?xml version="1.0" encoding="utf-8"?>
<!-- Generator: Adobe Illustrator 18.0.0, SVG Export Plug-In . SVG Version: 6.00 Build 0)  -->
<!DOCTYPE svg PUBLIC "-//W3C//DTD SVG 1.1//EN" "http://www.w3.org/Graphics/SVG/1.1/DTD/svg11.dtd">
<svg version="1.1" id="Layer_1" xmlns="http://www.w3.org/2000/svg" xmlns:xlink="http://www.w3.org/1999/xlink" x="0px" y="0px"
	 viewBox="0 0 1280 800" style="enable-background:new 0 0 1280 800;" xml:space="preserve">
<g>
	<g>
		<g>
			<path style="fill:#FFFFFF;stroke:#000000;stroke-miterlimit:10;" d="M104.8,22.5c0,27.1,49.2,49,109.9,49l0.4-0.2
				c57,0,103.1-24.8,103.1-54.8h0.1c0,30,46.1,54.8,103.1,54.8l0.4,0.2c60.8,0,109.9-22.1,109.9-49.1h-0.2c0,27,49.2,49,109.9,49
				h0.1c60.8,0,109.9-22,109.9-49h-0.2c0,27,49.2,49,109.9,49l0.4-0.2c57,0,103.1-24.8,103.1-54.8h0.1c0,30,46.1,54.8,103.1,54.8
				l0.4,0.2c60.8,0,109.9-22.1,109.9-49.1h-0.2c0,27,49.2,49,109.9,49l-0.3,0.5v743.5H-5.5v-744c61.4,0,109.9-21.5,109.9-48.6"/>
		</g>
	</g>
</g>
</svg>
